<svg xmlns="http://www.w3.org/2000/svg" width="1024" height="1024" viewBox="0 0 1024 1024"><title>BodySense 体悟 · 图标 D3 · 眼中眼</title>
<defs>
<radialGradient id="bgGrad" gradientUnits="userSpaceOnUse" cx="512" cy="616" r="820"><stop offset="0" stop-color="#143A3D"/><stop offset=".5" stop-color="#0B1B1E"/><stop offset="1" stop-color="#050F11"/></radialGradient>
<linearGradient id="wallStroke" gradientUnits="userSpaceOnUse" x1="512" y1="104" x2="512" y2="928"><stop offset="0" stop-color="#F2FFFB"/><stop offset=".55" stop-color="#86EED6"/><stop offset="1" stop-color="#3FC3A8"/></linearGradient>
<linearGradient id="tint" gradientUnits="userSpaceOnUse" x1="512" y1="104" x2="512" y2="928"><stop offset="0" stop-color="#5BE3C5" stop-opacity=".26"/><stop offset="1" stop-color="#5BE3C5" stop-opacity=".08"/></linearGradient>
</defs>

<g id="body-eyes" stroke-linejoin="round">
<path id="body-eye-0-lens" d="M512 304A360.3 360.3 0 0 1 512 928A360.3 360.3 0 0 1 512 304Z" fill="url(#tint)" stroke="url(#wallStroke)" stroke-width="20"/>
<circle id="body-eye-0-iris" cx="512" cy="616" r="180.1" fill="none" stroke="#8FF0D8" stroke-opacity=".5" stroke-width="4"/>
<path id="body-eye-1-lens" d="M512 435.9A208 208 0 0 1 512 796.1A208 208 0 0 1 512 435.9Z" fill="#5BE3C5" fill-opacity=".10" stroke="#86EED6" stroke-opacity=".8" stroke-width="8"/>
<circle id="body-eye-1-iris" cx="512" cy="616" r="104" fill="none" stroke="#8FF0D8" stroke-opacity=".55" stroke-width="4"/>
<path id="body-eye-2-lens" d="M512 512A120.1 120.1 0 0 1 512 720A120.1 120.1 0 0 1 512 512Z" fill="#5BE3C5" fill-opacity=".14" stroke="#A6EBD6" stroke-opacity=".95" stroke-width="7"/>
<circle id="body-eye-2-iris" cx="512" cy="616" r="60" fill="#F6C95A" fill-opacity=".12" stroke="#F6C95A" stroke-opacity=".9" stroke-width="4.5"/>
<circle id="body-pupil" cx="512" cy="616" r="30" fill="#F6C95A"/>
</g>
<g id="head-eye" stroke-linejoin="round">
<path id="head-eye-lens" d="M512 104A115.5 115.5 0 0 1 512 304A115.5 115.5 0 0 1 512 104Z" fill="url(#tint)" stroke="url(#wallStroke)" stroke-width="15"/>
<circle id="head-eye-iris" cx="512" cy="204" r="57.7" fill="none" stroke="#8FF0D8" stroke-opacity=".55" stroke-width="4"/>
<circle id="head-pupil" cx="512" cy="204" r="22" fill="#E6F2EE"/>
</g></svg>
